<svg height="37" viewBox="0 0 32 37" width="32" xmlns="http://www.w3.org/2000/svg"><path d="m317.104272 72.5980514-2.311948-1.332838 1.77731-.4785732c.561486-.1522467.894439-.7295544.745026-1.2918008l-.272232-1.016679c-.152247-.5614859-.729555-.8944388-1.291801-.7450252l-4.840063 1.2987367-4.370737-2.5315829 4.361489-2.5223351 4.840063 1.2987367c.562247.1494136 1.139554-.1835393 1.291801-.7450252l.273388-1.018413c.149413-.5622464-.18354-1.1395541-.745025-1.2918008l-1.77731-.4785732 2.311947-1.3328379c.505469-.2923051.679601-.9381939.389564-1.4449674l-1.05945-1.8322187c-.292305-.5054689-.938194-.6796005-1.444968-.3895632l-2.311948 1.3328379.478574-1.7773098c.147175-.5595378-.182791-1.1334376-.740402-1.287755l-1.018413-.2756998c-.562246-.1494135-1.139554.1835393-1.291801.7450252l-1.298736 4.8400628-4.293287 2.4749401v-5.2989844l3.670795-3.6702171c.423495-.4279218.423495-1.1170374 0-1.5449592l-.772191-.7721905c-.427922-.4234953-1.117037-.4234953-1.544959 0l-1.353645 1.3467096v-2.7621997c-.002536-.6031237-.491005-1.0913346-1.09413-1.0935513h-2.188836c-.602448.0031655-1.089867.4911005-1.092396 1.0935513v2.7621997l-1.346709-1.3467096c-.427922-.4234953-1.117037-.4234953-1.544959 0l-.779127.7721905c-.206604.2039516-.322899.4821665-.322899.7724796s.116295.568528.322899.7724796l3.670795 3.6702171v5.2978284l-4.293287-2.4749401-1.298736-4.8400627c-.152757-.5610183-.729904-.8933624-1.291801-.7438693l-1.018413.2756998c-.561486.1522467-.894439.7295544-.745025 1.2918009l.478573 1.7773098-2.311948-1.3328379c-.243025-.141038-.532298-.1792248-.803597-.1060826s-.502174.2515609-.64137.4956458l-1.055983 1.8235489c-.141038.2430252-.179224.5322976-.106082.8035967s.251561.5021746.495646.6413707l2.311947 1.3328379-1.777309.4785732c-.272001.0723628-.504056.2499307-.645006.4935572-.140949.2436264-.179221.5333072-.106377.8051795l.273387 1.018413c.152247.5614859.729555.8944387 1.291801.7450252l4.840063-1.2987367 4.36149 2.522335-4.36149 2.5223351-4.841797-1.2981587c-.562246-.1494135-1.139554.1835393-1.291801.7450252l-.273387 1.0161011c-.149414.5622464.183539 1.1395541.745025 1.2918008l1.77731.4785732-2.311948 1.3397738c-.505469.292305-.679601.9381938-.389563 1.4449673l1.05945 1.8322187c.292305.5054689.938194.6796005 1.444967.3895632l2.311948-1.3328379-.478573 1.7773099c-.149414.5622464.183539 1.1395541.745025 1.2918008l1.018413.2733878c.562246.1494136 1.139554-.1835393 1.291801-.7450252l1.298736-4.8400627 4.292132-2.4772521v5.2978284l-3.670796 3.6707952c-.206604.2039516-.322899.4821664-.322899.7724795 0 .2903132.116295.568528.322899.7724796l.772191.7727686c.427922.4234953 1.117037.4234953 1.544959 0l1.34671-1.3467096v2.7546858c.002533.6028993.490652 1.0910181 1.093551 1.0935513h2.187681c.602899-.0025332 1.091018-.490652 1.093551-1.0935513v-2.7610437l1.34671 1.3467096c.427921.4234953 1.117037.4234953 1.544959 0l.774502-.7727686c.423496-.4279218.423496-1.1170373 0-1.5449591l-3.652877-3.6707951v-5.2978284l4.293287 2.4749401 1.298736 4.8400627c.152247.5614859.729555.8944388 1.291801.7450252l1.018413-.2733878c.561486-.1522467.894439-.7295544.745026-1.2918008l-.478574-1.7773099 2.311948 1.3328379c.243025.1410381.532298.1792249.803597.1060826.271299-.0731422.502174-.2515609.641371-.4956458l1.05945-1.8322187c.141346-.2407316.180436-.5280295.108548-.7977746-.071889-.2697451-.248773-.4994845-.491176-.637945z" fill="none" stroke="#363536" stroke-width=".5" transform="translate(-286 -48)"/></svg>