<svg height="37" viewBox="0 0 16 37" width="16" xmlns="http://www.w3.org/2000/svg"><path d="m322.00399 168.875617v17.796432c2.13362 2.000583 2.828601 5.10153 1.75292 7.821379s-3.703701 4.506572-6.628537 4.506572c-2.924837 0-5.552856-1.786723-6.628537-4.506572s-.3807-5.820796 1.75292-7.821379v-17.796432c0-2.692729 2.182888-4.875617 4.875617-4.875617s4.875617 2.182888 4.875617 4.875617zm-2.250771 19.811035v-8.165867l-1.042928.443028-3.750519 1.593411-.459693.19422v5.935208c-1.341851 1.107509-1.844299 2.938011-1.25587 4.575354.588428 1.637343 2.141136 2.729264 3.881003 2.729264 1.739868 0 3.292576-1.091921 3.881004-2.729264.588429-1.637343.085981-3.467845-1.25587-4.575354zm0-18.948537v-1.500322h-5.250267v1.500322zm0 2.250771v-1.500322h-3.260371v1.500322zm0 2.249622v-1.500323h-5.250267v1.500323zm0 4.500967v-1.500322h-5.250267v1.500322zm0-2.250196v-1.500323h-3.260371v1.500323z" fill="none" stroke="#363536" stroke-width=".5" transform="translate(-309 -163)"/></svg>