<svg fill="currentColor" height="37" viewBox="0 0 22 37" width="22" xmlns="http://www.w3.org/2000/svg">
    <path d="m227.065876 322.473684h10.131579l-.042582 2.276058c0 1.081039-.656096 1.347525-1.355846 1.399369l-.161977.008427-.233783.003072-1.08008 1.83939h-4.308813l-1.147981-1.840017h-.075381c-.053706 0-.107717-.000724-.161754-.002445l-.161904-.008427c-.69949-.051844-1.356019-.31833-1.356019-1.399369h.002877l-.020674-1.151428zm11.052632-3.68421v3.68421h-11.973685v-3.68421zm-5.955941-25.789474c2.699932.020175 5.276358 1.146091 7.140313 3.120366 1.90282 1.99713 2.963282 4.663466 2.957549 7.436025-.013486 1.341204-.305154 2.664375-.853722 3.885727-.513082 1.138368-1.119911 2.231143-1.814082 3.266788-1.012287 1.581341-1.37738 2.753642-1.641197 4.120971l-.076653.416654-.148178.882909-.168239 1.017705c-.006917.040428-.013573.078929-.019922.11517l-.072725.606106h-10.632262l-.106778-.605522-.293916-1.777921c-.011756-.06946-.023553-.13825-.035453-.206438l-.073117-.402435c-.263632-1.387001-.626308-2.567834-1.653435-4.167199-.694148-1.035763-1.30116-2.128519-1.814659-3.266788-.511587-1.140044-.799587-2.36863-.849042-3.617765l-.007028-.267962c-.005512-2.772524 1.054924-5.438793 2.957588-7.436025 1.864033-1.974163 4.440409-3.100057 7.140314-3.120366z"
          fill="none" stroke="#363536" stroke-width=".5" transform="translate(-221 -292)" />
</svg>