<svg height="37" viewBox="0 0 37 37" width="37" xmlns="http://www.w3.org/2000/svg"><path d="m120.100936 299.75074c-1.793522-.015248-3.575973.282293-5.2673.879262l.845581-8.415035c.029526-.339126-.097063-.673229-.343899-.907643-.246837-.234414-.587026-.343598-.924177-.296615-5.502658.678842-9.641661 5.344207-9.660065 10.88855-.015248 1.793523.282294 3.575974.879262 5.2673l-8.4150348-.848535c-.3395979-.02967-.6741778.09722-.9086944.344624-.2345166.247405-.3433427.588289-.2955638.925815.6785686 5.502893 5.344009 9.642215 10.888551 9.660657 1.793522.015248 3.575973-.282294 5.2673-.879262l-.848536 8.415035c-.029205.339476.097829.673768.345117.908174s.587892.343392.925323.296084c5.502893-.678569 9.642214-5.344009 9.660656-10.888551.015248-1.793523-.282294-3.575974-.879262-5.2673l8.415035.845581c.339477.029206.673768-.097829.908174-.345117s.343392-.587892.296084-.925322c-.679935-5.501722-5.345003-9.639448-10.888551-9.657702zm-6.600375 10.936413c-1.20748 0-2.186337-.978856-2.186337-2.186337s.978857-2.186337 2.186337-2.186337c1.207481 0 2.186338.978856 2.186338 2.186337s-.978857 2.186337-2.186338 2.186337z" fill="none" stroke="#363536" stroke-width=".5" transform="translate(-95 -290)"/></svg>