<svg height="30" viewBox="0 0 30 30" width="30" xmlns="http://www.w3.org/2000/svg"><path d="m678.389192.3002336h20.833861c1.149208.00348156 2.079879.93438837 2.083069 2.08359742v20.83333338c-.00348 1.1490027-.934066 2.0795891-2.083069 2.0830692h-20.833861c-1.149003-.0034801-2.079589-.9340665-2.08307-2.0830692v-20.83333338c.003191-1.14920905.933862-2.08011586 2.08307-2.08359742zm20.405522 17.7082013c.004236-.3603812-.094727-.7144507-.285207-1.0204082-.191288-.3265926-.537488-.5314377-.915832-.5418937h-6.18266v3.125132h6.18266c.378373-.0103556.724618-.2152274.915832-.5418938.190562-.3059214.289532-.6600154.285207-1.0204081zm-19.976655 0c-.004384.3604005.094591.7145108.285207 1.0204082.191214.3266664.537459.5315381.915832.5418937h6.18266v-3.125132h-6.18266c-.378373.0103556-.724618.2152274-.915832.5418938-.190631.3060853-.289603.6603683-.285207 1.0209363zm9.988592-14.14575147c-.359833-.00384517-.713286.09509992-1.018824.28520725-.32734.19108825-.532983.5374875-.544006.91636033v6.18265939h3.126188v-6.18213123c-.011235-.37895017-.217065-.72532809-.544535-.91636033-.305525-.19013443-.658987-.28908178-1.018823-.28520725z" fill="none" stroke="#363536" stroke-width=".5" transform="translate(-675.306122 .699766)"/></svg>