<svg width="378" height="300" viewBox="0 0 378 300" fill="none" xmlns="http://www.w3.org/2000/svg">
<path d="M57.914 269.724C31.1271 243.243 30.8752 200.093 57.3251 173.296L9.39464 221.784L58.3848 270.216L58.3945 270.184C58.2344 270.031 58.0742 269.878 57.914 269.724Z" fill="#303246"/>
<path d="M299.344 144L273.615 144L259.56 144L108.66 144C65.77 144 31.002 178.921 31.002 222C31.002 265.079 65.77 300 108.66 300L299.344 300C342.234 300 377.002 265.079 377.002 222C377.002 178.921 342.234 144 299.344 144Z" fill="#A8D4CC"/>
<circle cx="323.502" cy="191.5" r="6.5" fill="#292D44"/>
<rect x="97.002" y="144" width="22" height="156" fill="#303246"/>
<rect x="141.002" y="144" width="22" height="156" fill="#303246"/>
<rect x="185.002" y="144" width="22" height="156" fill="#303246"/>
<rect x="229.002" y="144" width="22" height="156" fill="#303246"/>
<rect x="273.002" y="144" width="22" height="156" fill="#303246"/>
<path d="M82.6733 32.6724C113.505 24.4455 147.749 32.4035 171.934 56.5885C196.119 80.7735 204.069 115.026 195.85 145.849L82.6733 32.6724Z" fill="#CDEAE5"/>
<path d="M195.855 145.849C165.023 154.076 130.779 146.118 106.594 121.933C82.4088 97.7483 74.4592 63.496 82.6777 32.6724L195.855 145.849Z" fill="#A8D4CC"/>
<path d="M308.854 32.6724C278.022 24.4455 243.778 32.4035 219.593 56.5885C195.408 80.7735 187.459 115.026 195.677 145.849L308.854 32.6724Z" fill="#CDEAE5"/>
<path d="M195.673 145.849C226.505 154.076 260.749 146.118 284.934 121.933C309.119 97.7483 317.068 63.496 308.85 32.6724L195.673 145.849Z" fill="#A8D4CC"/>
</svg>
